<svg width="56" height="48" viewBox="0 0 56 48" fill="none" xmlns="http://www.w3.org/2000/svg">
<circle cx="32" cy="24" r="24" fill="#F8F9FD"/>
<g clip-path="url(#clip0)">
<path d="M21.6932 22.1709L18.9564 26.8064C18.6508 26.7273 18.3304 26.685 18.0001 26.685C15.9001 26.685 14.1978 28.3873 14.1978 30.4873C14.1978 32.5872 15.9001 34.2896 18.0001 34.2896C20.1 34.2896 21.8024 32.5872 21.8024 30.4873C21.8024 29.4802 21.4101 28.5651 20.7708 27.8848L23.5743 23.1367C22.9862 22.7527 22.3566 22.4284 21.6932 22.1709Z" fill="#FF9027"/>
<path d="M34.1135 23.6253L31.84 24.9379L30.7849 23.1103L33.0556 21.7993C33.0555 21.7992 33.0555 21.7991 33.0554 21.7989C31.7062 19.7561 29.9532 18.0038 27.911 16.6546C27.911 16.6545 27.9109 16.6545 27.9108 16.6544L26.605 18.9162L24.7774 17.861L26.0848 15.5966C23.9484 14.5196 21.5701 13.8563 19.0553 13.71V16.4658H16.9449V13.71C14.43 13.8563 12.0517 14.5196 9.91534 15.5966L11.2227 17.861L9.39513 18.9162L8.08931 16.6544C8.08924 16.6545 8.08917 16.6545 8.0891 16.6546C6.04697 18.0038 4.29396 19.7561 2.94473 21.7989C2.94466 21.7991 2.94459 21.7991 2.94452 21.7993L5.21527 23.1103L4.16009 24.9379L1.88667 23.6253C0.809606 25.7616 0.146319 28.1399 0 30.6547H5.70502C6.24246 24.3426 11.5514 19.3706 18 19.3706C24.4486 19.3706 29.7575 24.3426 30.295 30.6547H36C35.8537 28.1399 35.1904 25.7616 34.1135 23.6253Z" fill="#1E3747"/>
</g>
<defs>
<clipPath id="clip0">
<rect width="36" height="36" fill="white" transform="translate(0 6)"/>
</clipPath>
</defs>
</svg>
