<svg width="14" height="14" viewBox="0 0 14 14" fill="none" xmlns="http://www.w3.org/2000/svg">
<path d="M8.59106 7L13.0442 2.54687C13.2555 2.3359 13.3744 2.04962 13.3747 1.75099C13.3749 1.45237 13.2566 1.16587 13.0456 0.95453C12.8346 0.743185 12.5483 0.624305 12.2497 0.624041C11.9511 0.623778 11.6646 0.742152 11.4532 0.953123L7.00012 5.40625L2.547 0.953123C2.33565 0.741779 2.04901 0.623047 1.75012 0.623047C1.45123 0.623047 1.16459 0.741779 0.953246 0.953123C0.741901 1.16447 0.623169 1.45111 0.623169 1.75C0.623169 2.04888 0.741901 2.33553 0.953246 2.54687L5.40637 7L0.953246 11.4531C0.741901 11.6645 0.623169 11.9511 0.623169 12.25C0.623169 12.5489 0.741901 12.8355 0.953246 13.0469C1.16459 13.2582 1.45123 13.3769 1.75012 13.3769C2.04901 13.3769 2.33565 13.2582 2.547 13.0469L7.00012 8.59375L11.4532 13.0469C11.6646 13.2582 11.9512 13.3769 12.2501 13.3769C12.549 13.3769 12.8357 13.2582 13.047 13.0469C13.2583 12.8355 13.3771 12.5489 13.3771 12.25C13.3771 11.9511 13.2583 11.6645 13.047 11.4531L8.59106 7Z" fill="white"/>
</svg>
