<svg width="160" height="23" viewBox="0 0 160 23" fill="none" xmlns="http://www.w3.org/2000/svg">
<path d="M0 21.8112H5.80409V9.59202L11.2416 17.901H11.3638L16.8319 9.53092V21.8112H22.7276V0.42767H16.4653L11.3638 8.70613L6.26231 0.42767H0V21.8112Z" fill="#FF9027"/>
<path d="M69.5013 22.2388C73.3809 22.2388 76.5273 20.8031 78.7879 18.9397V11.7877H73.1671V13.6549V16.2514C72.2812 16.8319 71.1815 17.1373 69.7457 17.1373C66.3549 17.1373 63.9416 14.663 63.9416 11.2111C63.9416 7.88134 66.3244 5.28478 69.4097 5.28478C71.5175 5.28478 73.0449 6.01792 74.5723 7.30093L78.0547 3.11588C75.7942 1.16082 73.1365 0 69.3791 0C62.7503 0 57.8626 4.88765 57.8626 11.1194C57.8626 17.6566 62.8419 22.2388 69.5013 22.2388Z" fill="#FF9027"/>
<path d="M86.6556 21.8112H92.5208V10.0808L101.655 21.8112H106.848V0.42767H100.983V11.7304L92.1848 0.42767H86.6556V21.8112Z" fill="#FF9027"/>
<path d="M124.845 22.2083C130.924 22.2083 134.865 19.184 134.865 12.2802V0.42767H128.847V12.4635C128.847 15.4572 127.289 16.8624 124.906 16.8624C122.524 16.8624 120.966 15.3961 120.966 12.3108V0.42767H114.948V12.433C114.948 19.1229 118.766 22.2083 124.845 22.2083Z" fill="#FF9027"/>
<path d="M151.355 22.1777C156.548 22.1777 160 19.5812 160 15.2128C160 11.15 156.945 9.56147 152.027 8.4923C149.064 7.82025 148.331 7.39258 148.331 6.41505C148.331 5.59025 149.033 4.9793 150.469 4.9793C152.363 4.9793 154.501 5.71245 156.456 7.0871L159.42 2.90205C157.098 1.03863 154.257 0.0610967 150.622 0.0610967C145.49 0.0610967 142.343 2.93259 142.343 6.90381C142.343 11.3638 145.856 12.6468 150.408 13.6854C153.31 14.3575 154.013 14.8462 154.013 15.7321C154.013 16.7097 153.157 17.2595 151.569 17.2595C149.094 17.2595 146.742 16.3736 144.634 14.6935L141.335 18.6342C143.962 20.9864 147.567 22.1777 151.355 22.1777Z" fill="#FF9027"/>
<path d="M53.4738 21.6278L44.1111 0.252441L38.0164 0.252442L28.6537 21.6278H34.9691L41.1079 6.70037L47.2467 21.6278H53.4738Z" fill="#FF9027"/>
</svg>
