<svg width="241" height="34" viewBox="0 0 241 34" fill="none" xmlns="http://www.w3.org/2000/svg">
<path d="M0 32.7832H8.72382V14.4173L16.8967 26.9061H17.0803L25.2991 14.3254V32.7832H34.1607V0.642808H24.7481L17.0803 13.0857L9.41255 0.642808H0V32.7832Z" fill="#FF9027"/>
<path d="M104.464 33.426C110.295 33.426 115.024 31.268 118.422 28.4672V17.7174H109.974V20.5239V24.4267C108.642 25.2991 106.989 25.7582 104.831 25.7582C99.7346 25.7582 96.1073 22.0391 96.1073 16.8508C96.1073 11.846 99.6887 7.94327 104.326 7.94327C107.494 7.94327 109.79 9.04523 112.086 10.9737L117.32 4.68332C113.922 1.74476 109.928 0 104.28 0C94.3166 0 86.9703 7.34638 86.9703 16.713C86.9703 26.5388 94.4544 33.426 104.464 33.426Z" fill="#FF9027"/>
<path d="M130.248 32.7832H139.063V15.1519L152.792 32.7832H160.597V0.642808H151.782V17.6313L138.558 0.642808H130.248V32.7832Z" fill="#FF9027"/>
<path d="M187.648 33.3801C196.785 33.3801 202.708 28.8345 202.708 18.4578V0.642808H193.663V18.7333C193.663 23.2329 191.321 25.345 187.74 25.345C184.159 25.345 181.817 23.1411 181.817 18.5037V0.642808H172.772V18.6873C172.772 28.7427 178.511 33.3801 187.648 33.3801Z" fill="#FF9027"/>
<path d="M227.494 33.3342C235.299 33.3342 240.488 29.4314 240.488 22.8656C240.488 16.7589 235.896 14.3714 228.504 12.7643C224.05 11.7542 222.948 11.1114 222.948 9.64212C222.948 8.40242 224.004 7.48412 226.162 7.48412C229.009 7.48412 232.223 8.58608 235.162 10.6522L239.615 4.36191C236.126 1.56111 231.856 0.0918313 226.392 0.0918313C218.678 0.0918313 213.949 4.40783 213.949 10.3768C213.949 17.0803 219.229 19.0088 226.07 20.5699C230.432 21.58 231.488 22.3146 231.488 23.6462C231.488 25.1154 230.203 25.9419 227.815 25.9419C224.096 25.9419 220.561 24.6104 217.392 22.085L212.434 28.0081C216.382 31.5435 221.8 33.3342 227.494 33.3342Z" fill="#FF9027"/>
<path d="M80.3738 32.5075L66.3012 0.379395L57.1406 0.379395L43.068 32.5075H52.5604L61.7873 10.0709L71.0142 32.5075H80.3738Z" fill="#FF9027"/>
</svg>
