<svg width="34" height="34" viewBox="0 0 34 34" fill="none" xmlns="http://www.w3.org/2000/svg">
<g clip-path="url(#clip0)">
<path d="M18.8526 11.7128V6.6943C18.8526 5.36331 18.3238 4.08683 17.3827 3.14567C16.4415 2.20452 15.165 1.67578 13.834 1.67578C12.503 1.67578 11.2266 2.20452 10.2854 3.14567C9.34425 4.08683 8.81552 5.36331 8.81552 6.6943V11.7128H18.8526ZM5.05163 9.20356H22.6164L23.8711 24.2591H3.797L5.05163 9.20356Z" stroke="white" stroke-width="1.88194" stroke-linecap="round" stroke-linejoin="round"/>
</g>
<circle cx="23.5129" cy="24.2591" r="9.67857" fill="white"/>
<path d="M21.6525 27.6133H20.2867V22.3487L18.6563 22.8543V21.7438L21.506 20.723H21.6525V27.6133ZM27.184 24.8628C26.828 25.2125 26.4121 25.3874 25.9364 25.3874C25.3283 25.3874 24.8415 25.1795 24.4761 24.7636C24.1106 24.3446 23.9279 23.7806 23.9279 23.0717C23.9279 22.6212 24.0255 22.2085 24.2209 21.8335C24.4194 21.4555 24.695 21.1625 25.0479 20.9545C25.4008 20.7434 25.7977 20.6379 26.2388 20.6379C26.6925 20.6379 27.0958 20.7513 27.4486 20.9782C27.8015 21.205 28.0756 21.5311 28.2709 21.9564C28.4663 22.3817 28.5655 22.8685 28.5687 23.4167V23.9224C28.5687 25.0692 28.2835 25.9703 27.7133 26.6256C27.143 27.2809 26.3349 27.6306 25.2889 27.6747L24.9534 27.6794V26.5405L25.2558 26.5358C26.4436 26.4822 27.0863 25.9246 27.184 24.8628ZM26.2719 24.343C26.4924 24.343 26.6815 24.2863 26.839 24.1729C26.9997 24.0594 27.121 23.9224 27.2029 23.7617V23.1993C27.2029 22.7362 27.1147 22.377 26.9382 22.1218C26.7618 21.8666 26.5255 21.739 26.2294 21.739C25.9553 21.739 25.73 21.8651 25.5536 22.1171C25.3771 22.366 25.2889 22.6795 25.2889 23.0575C25.2889 23.4325 25.374 23.7412 25.5441 23.9838C25.7174 24.2233 25.96 24.343 26.2719 24.343Z" fill="#FF9027"/>
<defs>
<clipPath id="clip0">
<rect width="25.8095" height="25.8095" fill="white" transform="translate(0.929565 0.0625)"/>
</clipPath>
</defs>
</svg>
