<svg width="35" height="41" viewBox="0 0 35 41" fill="none" xmlns="http://www.w3.org/2000/svg">
<g clip-path="url(#clip0)">
<path d="M17.5434 11.369V6.61542C17.5434 5.35469 17.0259 4.14559 16.1046 3.25411C15.1834 2.36264 13.934 1.86182 12.6312 1.86182C11.3283 1.86182 10.0789 2.36264 9.15767 3.25411C8.23644 4.14559 7.7189 5.35469 7.7189 6.61542V11.369H17.5434ZM4.0347 8.99219H21.2276L22.4557 23.2531H2.80664L4.0347 8.99219Z" stroke="white" stroke-width="2.00836" stroke-linecap="round" stroke-linejoin="round"/>
<g filter="url(#filter0_d)">
<path d="M22.1045 32.4213C27.3367 32.4213 31.5782 28.3168 31.5782 23.2536C31.5782 18.1905 27.3367 14.0859 22.1045 14.0859C16.8724 14.0859 12.6309 18.1905 12.6309 23.2536C12.6309 28.3168 16.8724 32.4213 22.1045 32.4213Z" fill="#FF9027"/>
<path d="M22.1046 32.0376C27.1178 32.0376 31.1819 28.1049 31.1819 23.2536C31.1819 18.4022 27.1178 14.4695 22.1046 14.4695C17.0914 14.4695 13.0273 18.4022 13.0273 23.2536C13.0273 28.1049 17.0914 32.0376 22.1046 32.0376Z" stroke="white" stroke-opacity="0.1" stroke-width="0.860724"/>
</g>
<path d="M19.4489 26.8183H17.9302V21.1532L16.1172 21.6973V20.5022L19.286 19.4038H19.4489V26.8183ZM25.5999 23.8586C25.2039 24.2349 24.7416 24.4231 24.2125 24.4231C23.5364 24.4231 22.9951 24.1993 22.5887 23.7518C22.1823 23.3009 21.9791 22.694 21.9791 21.9313C21.9791 21.4465 22.0877 21.0023 22.3049 20.5989C22.5256 20.1921 22.8322 19.8768 23.2246 19.653C23.617 19.4259 24.0583 19.3123 24.5489 19.3123C25.0533 19.3123 25.5018 19.4344 25.8942 19.6784C26.2865 19.9225 26.5913 20.2734 26.8085 20.7311C27.0258 21.1888 27.1361 21.7125 27.1396 22.3025V22.8466C27.1396 24.0806 26.8225 25.0503 26.1884 25.7554C25.5543 26.4606 24.6557 26.8369 23.4926 26.8843L23.1195 26.8894V25.6639L23.4558 25.6588C24.7766 25.6011 25.4912 25.0011 25.5999 23.8586ZM24.5856 23.2992C24.8309 23.2992 25.0411 23.2382 25.2163 23.1162C25.3949 22.9941 25.5298 22.8466 25.6209 22.6737V22.0685C25.6209 21.5702 25.5228 21.1837 25.3266 20.9091C25.1304 20.6345 24.8676 20.4972 24.5384 20.4972C24.2335 20.4972 23.9831 20.6328 23.7869 20.904C23.5907 21.1719 23.4926 21.5091 23.4926 21.916C23.4926 22.3194 23.5872 22.6517 23.7764 22.9127C23.9691 23.1704 24.2388 23.2992 24.5856 23.2992Z" fill="white"/>
</g>
<defs>
<filter id="filter0_d" x="6.75424" y="14.0391" width="30.7001" height="30.1138" filterUnits="userSpaceOnUse" color-interpolation-filters="sRGB">
<feFlood flood-opacity="0" result="BackgroundImageFix"/>
<feColorMatrix in="SourceAlpha" type="matrix" values="0 0 0 0 0 0 0 0 0 0 0 0 0 0 0 0 0 0 127 0"/>
<feOffset dy="5.84244"/>
<feGaussianBlur stdDeviation="2.92122"/>
<feColorMatrix type="matrix" values="0 0 0 0 1 0 0 0 0 0.564706 0 0 0 0 0.152941 0 0 0 0.5 0"/>
<feBlend mode="normal" in2="BackgroundImageFix" result="effect1_dropShadow"/>
<feBlend mode="normal" in="SourceGraphic" in2="effect1_dropShadow" result="shape"/>
</filter>
<clipPath id="clip0">
<rect width="35" height="41" fill="white"/>
</clipPath>
</defs>
</svg>
