<svg width="144" height="20" viewBox="0 0 144 20" fill="none" xmlns="http://www.w3.org/2000/svg">
<path d="M0 19.6154H5.21978V8.62637L10.1099 16.0989H10.2198L15.1374 8.57143V19.6154H20.4396V0.384615H14.8077L10.2198 7.82967L5.63187 0.384615H0V19.6154Z" fill="#FF9027"/>
<path d="M62.5045 20C65.9935 20 68.8232 18.7088 70.8561 17.033V10.601H65.8012V14.6154C65.0045 15.1374 64.0155 15.4121 62.7243 15.4121C59.6748 15.4121 57.5045 13.1868 57.5045 10.0824C57.5045 7.08791 59.6474 4.75275 62.4221 4.75275C64.3177 4.75275 65.6913 5.41209 67.0649 6.56593L70.1968 2.8022C68.1638 1.04396 65.7737 0 62.3946 0C56.4331 0 52.0375 4.39561 52.0375 10C52.0375 15.8791 56.5155 20 62.5045 20Z" fill="#FF9027"/>
<path d="M77.9318 19.6154H83.2066V9.06594L91.4208 19.6154H96.0912V0.384615H90.8164V10.5495L82.9044 0.384615H77.9318V19.6154Z" fill="#FF9027"/>
<path d="M112.277 19.9725C117.744 19.9725 121.288 17.2527 121.288 11.044V0.384615H115.876V11.2088C115.876 13.9011 114.475 15.1648 112.332 15.1648C110.189 15.1648 108.788 13.8462 108.788 11.0714V0.384615H103.376V11.1813C103.376 17.1978 106.81 19.9725 112.277 19.9725Z" fill="#FF9027"/>
<path d="M136.118 19.9451C140.788 19.9451 143.893 17.6099 143.893 13.6813C143.893 10.0275 141.145 8.5989 136.722 7.63736C134.057 7.03297 133.398 6.64835 133.398 5.76923C133.398 5.02747 134.03 4.47802 135.321 4.47802C137.024 4.47802 138.947 5.13736 140.706 6.37363L143.371 2.60989C141.283 0.934067 138.728 0.054946 135.458 0.054946C130.843 0.054946 128.013 2.63736 128.013 6.20879C128.013 10.2198 131.173 11.3736 135.266 12.3077C137.876 12.9121 138.508 13.3516 138.508 14.1484C138.508 15.0275 137.739 15.522 136.31 15.522C134.085 15.522 131.969 14.7253 130.074 13.2143L127.107 16.7582C129.469 18.8736 132.711 19.9451 136.118 19.9451Z" fill="#FF9027"/>
<path d="M48.0907 19.4505L39.6705 0.227051L34.1894 0.227051L25.7692 19.4505H31.4489L36.9697 6.02586L42.4904 19.4505H48.0907Z" fill="#FF9027"/>
</svg>
