<svg width="113" height="16" viewBox="0 0 113 16" fill="none" xmlns="http://www.w3.org/2000/svg">
<path d="M0 15.4041H4.09914V6.77436L7.93938 12.6426H8.02568L11.8875 6.73122V15.4041H16.0514V0.302042H11.6286L8.02568 6.14871L4.42275 0.302042H0V15.4041Z" fill="#FF9027"/>
<path d="M49.0853 15.7062C51.8253 15.7062 54.0474 14.6922 55.6439 13.3761V8.32504H51.6742V9.64376V11.4776C51.0486 11.8875 50.2719 12.1032 49.2579 12.1032C46.8631 12.1032 45.1588 10.3557 45.1588 7.91781C45.1588 5.5662 46.8416 3.73237 49.0206 3.73237C50.5092 3.73237 51.5879 4.25016 52.6667 5.15628L55.1261 2.20059C53.5296 0.819827 51.6527 0 48.999 0C44.3174 0 40.8655 3.45191 40.8655 7.85309C40.8655 12.47 44.3821 15.7062 49.0853 15.7062Z" fill="#FF9027"/>
<path d="M61.2005 15.4041H65.3428V7.11956L71.7936 15.4041H75.4612V0.302042H71.3189V8.28457L65.1055 0.302042H61.2005V15.4041Z" fill="#FF9027"/>
<path d="M88.1719 15.6846C92.4652 15.6846 95.2483 13.5487 95.2483 8.67291V0.302042H90.9981V8.80236C90.9981 10.9167 89.8979 11.9091 88.215 11.9091C86.5322 11.9091 85.4319 10.8735 85.4319 8.69449V0.302042H81.1818V8.78078C81.1818 13.5056 83.8786 15.6846 88.1719 15.6846Z" fill="#FF9027"/>
<path d="M106.894 15.663C110.562 15.663 113 13.8292 113 10.7441C113 7.87466 110.843 6.75279 107.369 5.99769C105.276 5.52305 104.759 5.22101 104.759 4.53063C104.759 3.94812 105.255 3.51663 106.269 3.51663C107.606 3.51663 109.117 4.03441 110.497 5.00526L112.59 2.04957C110.95 0.733531 108.944 0.0431495 106.377 0.0431495C102.752 0.0431495 100.53 2.07114 100.53 4.87582C100.53 8.02568 103.011 8.93181 106.226 9.66534C108.275 10.14 108.771 10.4852 108.771 11.1108C108.771 11.8012 108.167 12.1895 107.045 12.1895C105.298 12.1895 103.637 11.5639 102.148 10.3773L99.818 13.1604C101.673 14.8216 104.219 15.663 106.894 15.663Z" fill="#FF9027"/>
<path d="M37.7659 15.2745L31.1535 0.178223L26.8491 0.178223L20.2367 15.2746H24.697L29.0325 4.73207L33.368 15.2745H37.7659Z" fill="#FF9027"/>
</svg>
