<svg width="23" height="22" viewBox="0 0 23 22" fill="none" xmlns="http://www.w3.org/2000/svg">
<path opacity="0.2" d="M11.8925 0C5.81732 0 0.892456 4.92486 0.892456 11C0.892456 17.0751 5.81732 22 11.8925 22C17.9676 22 22.8925 17.0751 22.8925 11C22.8925 4.92486 17.9676 0 11.8925 0ZM7.93933 4.36938C8.16597 4.35602 8.37082 4.49148 8.52613 4.73193L10.03 7.58397C10.1884 7.92192 10.0984 8.28379 9.86219 8.52526L9.17335 9.2141C9.13083 9.27236 9.10286 9.33797 9.10218 9.41013C9.36634 10.4327 10.1677 11.3759 10.8747 12.0245C11.5816 12.6732 12.3415 13.5513 13.3279 13.7594C13.4498 13.7934 13.5992 13.8056 13.6864 13.7245L14.4867 12.9094C14.7629 12.7 15.1626 12.5986 15.4575 12.7698H15.4709L18.1847 14.3717C18.583 14.6214 18.6243 15.104 18.3391 15.3976L16.47 17.252C16.1939 17.535 15.8272 17.6302 15.471 17.6306C13.8953 17.5834 12.4064 16.81 11.1835 16.0153C9.17619 14.555 7.33492 12.7438 6.17896 10.5555C5.73563 9.63796 5.21483 8.46719 5.26453 7.44302C5.26897 7.05773 5.37321 6.68026 5.64455 6.43192L7.51369 4.56278C7.65929 4.43888 7.80333 4.37741 7.93933 4.36938Z" fill="white"/>
</svg>
