<svg width="20" height="20" viewBox="0 0 20 20" fill="none" xmlns="http://www.w3.org/2000/svg">
<path d="M0.326906 17.7527L4.73738 13.3422C3.67553 11.9286 3.10232 10.208 3.10425 8.44C3.10425 3.92406 6.77831 0.25 11.2943 0.25C15.8102 0.25 19.4843 3.92406 19.4843 8.44C19.4843 12.9559 15.8102 16.63 11.2943 16.63C9.52628 16.6319 7.80565 16.0587 6.39206 14.9969L1.98159 19.4073C1.75834 19.6069 1.46715 19.7135 1.16781 19.7051C0.868473 19.6967 0.5837 19.574 0.371954 19.3623C0.160208 19.1506 0.0375557 18.8658 0.0291786 18.5664C0.0208015 18.2671 0.127335 17.9759 0.326906 17.7527ZM17.1443 8.44C17.1443 7.28298 16.8012 6.15194 16.1583 5.18992C15.5155 4.22789 14.6019 3.47808 13.533 3.03531C12.464 2.59253 11.2878 2.47668 10.153 2.70241C9.01818 2.92813 7.97581 3.48529 7.15768 4.30343C6.33954 5.12156 5.78238 6.16393 5.55666 7.29872C5.33093 8.43351 5.44678 9.60975 5.88955 10.6787C6.33233 11.7476 7.08214 12.6613 8.04416 13.3041C9.00619 13.9469 10.1372 14.29 11.2943 14.29C12.8452 14.2881 14.3321 13.6712 15.4288 12.5745C16.5255 11.4778 17.1424 9.99095 17.1443 8.44Z" fill="#283949"/>
</svg>
